<svg xmlns="http://www.w3.org/2000/svg" viewBox="0 0 760 180" role="img" aria-labelledby="title desc">
  <title id="title">서울대학교 가로형 로고</title>
  <desc id="desc">서울대학교 문장형 엠블럼과 한글 워드마크가 결합된 가로형 로고.</desc>
  <rect width="760" height="180" fill="#ffffff"/>

  <g transform="translate(4 10)">
    <g fill="none" stroke="#2a4496" stroke-width="4" stroke-linecap="round" stroke-linejoin="round">
      <path d="M36 132C18 113 8 87 8 60c0-8 1-15 3-22"/>
      <path d="M21 31C29 16 42 5 58 0"/>
      <path d="M134 132c18-19 28-45 28-72 0-8-1-15-3-22"/>
      <path d="M149 31C141 16 128 5 112 0"/>
    </g>

    <g fill="none" stroke="#2a4496" stroke-width="3.4" stroke-linecap="round" stroke-linejoin="round">
      <path d="M29 119c13-8 24-19 33-32"/>
      <path d="M24 106c14-8 26-20 35-34"/>
      <path d="M21 92c15-7 27-18 36-31"/>
      <path d="M20 77c14-6 25-15 33-26"/>
      <path d="M22 61c13-5 22-12 29-21"/>
      <path d="M28 46c10-4 18-9 24-16"/>

      <path d="M141 119c-13-8-24-19-33-32"/>
      <path d="M146 106c-14-8-26-20-35-34"/>
      <path d="M149 92c-15-7-27-18-36-31"/>
      <path d="M150 77c-14-6-25-15-33-26"/>
      <path d="M148 61c-13-5-22-12-29-21"/>
      <path d="M142 46c-10-4-18-9-24-16"/>
    </g>

    <g fill="#2a4496" stroke="#2a4496" stroke-width="2">
      <path d="M27 114l13-1-6 8z"/>
      <path d="M22 101l14 0-7 8z"/>
      <path d="M19 87l14 1-8 7z"/>
      <path d="M20 72l13 2-8 6z"/>
      <path d="M26 58l12 3-8 5z"/>
      <path d="M33 43l11 4-7 4z"/>

      <path d="M143 114l-13-1 6 8z"/>
      <path d="M148 101l-14 0 7 8z"/>
      <path d="M151 87l-14 1 8 7z"/>
      <path d="M150 72l-13 2 8 6z"/>
      <path d="M144 58l-12 3 8 5z"/>
      <path d="M137 43l-11 4 7 4z"/>

      <path d="M36 127l-9 18 14-10z"/>
      <path d="M134 127l9 18-14-10z"/>
    </g>

    <g transform="translate(42 8)">
      <path d="M32 0l25 18v48c0 29-17 48-32 58C10 114-7 95-7 66V18z" fill="#2a4496"/>
      <path d="M29 14l9 7-9 7h-7v27H9V28h13l8-7H12v-7z" fill="#ffffff"/>
      <path d="M40 8l15 11" fill="none" stroke="#2a4496" stroke-width="7" stroke-linecap="round"/>
    </g>

    <g transform="translate(31 87)">
      <path d="M12 0h58v34c0 9-7 16-16 16H28c-9 0-16-7-16-16z" fill="#2a4496"/>
      <path d="M12 0L4 9" fill="none" stroke="#2a4496" stroke-width="7" stroke-linecap="round"/>
      <path d="M70 0l8 9" fill="none" stroke="#2a4496" stroke-width="7" stroke-linecap="round"/>
      <path d="M12 0h58" fill="none" stroke="#ffffff" stroke-width="2.1"/>
      <path d="M41 0v50" fill="none" stroke="#ffffff" stroke-width="2.1"/>
      <g fill="#ffffff" font-family="Georgia, serif" font-size="14" font-weight="700" text-anchor="middle">
        <text x="26" y="19">VERI</text>
        <text x="56" y="19">LUX</text>
        <text x="26" y="37">TAS</text>
        <text x="56" y="37">MEA</text>
      </g>
    </g>
  </g>

  <g fill="#2a4496" font-family="'Malgun Gothic','Apple SD Gothic Neo',sans-serif" font-weight="500" text-anchor="start">
    <text x="198" y="123" font-size="92" letter-spacing="18">서울대학교</text>
  </g>
</svg>
