<svg xmlns="http://www.w3.org/2000/svg" viewBox="0 0 220 220" role="img" aria-labelledby="title desc">
  <title id="title">서울대학교 문장형 엠블럼</title>
  <desc id="desc">파란색 월계수와 방패, 리본, 표어가 포함된 서울대학교 문장형 엠블럼 스타일 이미지.</desc>
  <rect width="220" height="220" fill="#ffffff"/>

  <g fill="none" stroke="#0b41b3" stroke-width="5" stroke-linecap="round" stroke-linejoin="round">
    <path d="M45 176c-19-19-30-44-30-71 0-8 1-16 3-24"/>
    <path d="M30 70c8-19 22-35 41-46"/>
    <path d="M175 176c19-19 30-44 30-71 0-8-1-16-3-24"/>
    <path d="M190 70c-8-19-22-35-41-46"/>
  </g>

  <g fill="#0b41b3" stroke="#0b41b3" stroke-linejoin="round">
    <path d="M52 166l-10 22 18-13z"/>
    <path d="M168 166l10 22-18-13z"/>
  </g>

  <g fill="none" stroke="#0b41b3" stroke-width="4.2" stroke-linecap="round" stroke-linejoin="round">
    <path d="M38 160c15-10 27-23 37-38"/>
    <path d="M32 146c17-10 31-24 42-40"/>
    <path d="M27 131c18-9 32-22 44-37"/>
    <path d="M24 115c18-8 31-20 42-34"/>
    <path d="M24 97c17-6 30-16 40-28"/>
    <path d="M29 79c15-5 27-13 35-24"/>
    <path d="M40 63c12-4 21-10 28-18"/>

    <path d="M182 160c-15-10-27-23-37-38"/>
    <path d="M188 146c-17-10-31-24-42-40"/>
    <path d="M193 131c-18-9-32-22-44-37"/>
    <path d="M196 115c-18-8-31-20-42-34"/>
    <path d="M196 97c-17-6-30-16-40-28"/>
    <path d="M191 79c-15-5-27-13-35-24"/>
    <path d="M180 63c-12-4-21-10-28-18"/>
  </g>

  <g fill="#0b41b3" stroke="#0b41b3" stroke-width="2.2" stroke-linejoin="round">
    <path d="M40 154l16-2-8 10z"/>
    <path d="M33 139l17-1-8 10z"/>
    <path d="M27 124l18 0-9 10z"/>
    <path d="M24 108l18 2-10 9z"/>
    <path d="M25 91l18 3-11 8z"/>
    <path d="M31 75l16 4-10 7z"/>
    <path d="M42 60l15 5-10 6z"/>

    <path d="M180 154l-16-2 8 10z"/>
    <path d="M187 139l-17-1 8 10z"/>
    <path d="M193 124l-18 0 9 10z"/>
    <path d="M196 108l-18 2 10 9z"/>
    <path d="M195 91l-18 3 11 8z"/>
    <path d="M189 75l-16 4 10 7z"/>
    <path d="M178 60l-15 5 10 6z"/>
  </g>

  <g transform="translate(74 24)">
    <path d="M36 0l30 22v58c0 34-20 56-36 67C14 136-6 114-6 80V22z" fill="#0b41b3"/>
    <path d="M34 16l11 8-11 8h-9v32h-17V32h16l10-8H12v-8z" fill="#ffffff"/>
    <path d="M47 10l18 13" fill="none" stroke="#0b41b3" stroke-width="8" stroke-linecap="round"/>
  </g>

  <g transform="translate(59 108)">
    <path d="M16 0h74v45c0 10-8 18-18 18H34c-10 0-18-8-18-18z" fill="#0b41b3"/>
    <path d="M16 0l-11 11" fill="none" stroke="#0b41b3" stroke-width="8" stroke-linecap="round"/>
    <path d="M90 0l11 11" fill="none" stroke="#0b41b3" stroke-width="8" stroke-linecap="round"/>
    <path d="M16 0h74" fill="none" stroke="#ffffff" stroke-width="2.5"/>
    <path d="M53 0v63" fill="none" stroke="#ffffff" stroke-width="2.5"/>
    <g fill="#ffffff" font-family="Georgia, serif" font-size="17" font-weight="700" text-anchor="middle">
      <text x="34" y="24">VERI</text>
      <text x="72" y="24">LUX</text>
      <text x="34" y="46">TAS</text>
      <text x="72" y="46">MEA</text>
    </g>
  </g>
</svg>
